<svg width="64" height="76" viewBox="0 0 64 76" fill="none" xmlns="http://www.w3.org/2000/svg">
<path d="M5.12789 24.8779C2.59477 24.8767 0.541641 26.9348 0.541016 29.4661L0.544141 48.6761C0.543894 49.2788 0.662413 49.8756 0.892924 50.4325C1.12344 50.9894 1.46142 51.4954 1.88757 51.9216C2.31371 52.3478 2.81967 52.6858 3.37651 52.9164C3.93336 53.147 4.53019 53.2656 5.13289 53.2654C5.73556 53.2661 6.33244 53.1478 6.88933 52.9174C7.44622 52.687 7.95218 52.349 8.37821 51.9227C8.80425 51.4965 9.14199 50.9903 9.37209 50.4333C9.60219 49.8763 9.72013 49.2794 9.71914 48.6767V29.4636C9.71782 28.2468 9.23349 27.0804 8.37259 26.2205C7.51169 25.3607 6.34464 24.8778 5.12789 24.8779ZM42.1229 7.62669L45.3248 1.77981C45.4063 1.63149 45.4258 1.45688 45.3788 1.29426C45.3318 1.13164 45.2222 0.994284 45.0741 0.912313C44.9258 0.831722 44.7516 0.813244 44.5897 0.86093C44.4278 0.908616 44.2914 1.01857 44.2104 1.16669L40.976 7.07481C38.2548 5.86356 35.2091 5.18481 31.9866 5.18794C28.7729 5.18481 25.7285 5.86169 23.0185 7.06606L19.7804 1.17294C19.7409 1.09938 19.6871 1.03439 19.6223 0.981746C19.5575 0.929099 19.4829 0.889838 19.4027 0.866237C19.3226 0.842635 19.2386 0.835163 19.1556 0.844252C19.0726 0.853342 18.9922 0.878812 18.9191 0.919188C18.8453 0.958635 18.7801 1.0124 18.7274 1.07735C18.6746 1.14229 18.6353 1.21711 18.6118 1.29742C18.5883 1.37773 18.581 1.46193 18.5904 1.54508C18.5999 1.62823 18.6258 1.70867 18.6666 1.78169L21.8698 7.62481C15.576 10.8704 11.3235 17.0517 11.3273 24.1486L52.651 24.1436C52.6529 17.0492 48.4079 10.8804 42.1229 7.62669ZM22.5879 16.6623C22.1283 16.6621 21.6877 16.4793 21.3629 16.1541C21.0381 15.829 20.8558 15.3881 20.856 14.9286C20.8563 14.469 21.0391 14.0283 21.3642 13.7036C21.6893 13.3788 22.1302 13.1964 22.5898 13.1967C23.0494 13.1975 23.49 13.3804 23.815 13.7054C24.1401 14.0303 24.3231 14.4708 24.3241 14.9304C24.3235 15.3903 24.1402 15.8311 23.8146 16.1559C23.489 16.4806 23.0478 16.6628 22.5879 16.6623ZM41.4048 16.6586C41.1773 16.6587 40.9519 16.614 40.7417 16.5271C40.5315 16.4401 40.3405 16.3126 40.1796 16.1517C40.0187 15.9909 39.891 15.7999 39.804 15.5897C39.7169 15.3795 39.6722 15.1542 39.6723 14.9267C39.6747 14.4675 39.858 14.0278 40.1824 13.7028C40.5068 13.3778 40.9462 13.1937 41.4054 13.1904C41.8642 13.1942 42.303 13.3787 42.6267 13.7038C42.9504 14.0289 43.133 14.4685 43.1348 14.9273C43.135 15.1546 43.0904 15.3798 43.0036 15.5898C42.9168 15.7999 42.7894 15.9908 42.6287 16.1516C42.468 16.3124 42.2772 16.4399 42.0672 16.5269C41.8572 16.6139 41.6321 16.6586 41.4048 16.6586ZM11.496 25.7448L11.5029 55.5167C11.502 56.1597 11.628 56.7966 11.8737 57.3909C12.1194 57.9852 12.4799 58.5251 12.9346 58.9798C13.3894 59.4344 13.9293 59.7949 14.5236 60.0405C15.1179 60.2861 15.7548 60.412 16.3979 60.4111L19.731 60.4123L19.7348 70.5773C19.7341 73.1086 21.7916 75.1661 24.3191 75.1661C26.8541 75.1661 28.9079 73.1067 28.9085 70.5742L28.906 60.4117L35.0991 60.4098L35.1016 70.5742C35.1016 73.1036 37.1598 75.1654 39.6879 75.1604C42.2229 75.1623 44.2779 73.1029 44.2773 70.5704L44.2741 60.4086L47.6191 60.4061C48.2622 60.4061 48.899 60.2796 49.4931 60.0336C50.0873 59.7875 50.6272 59.4269 51.0819 58.9722C51.5367 58.5176 51.8975 57.9778 52.1436 57.3837C52.3898 56.7896 52.5166 56.1529 52.5166 55.5098L52.511 25.7379L11.496 25.7448ZM63.4548 29.4592C63.4547 28.8567 63.3359 28.2602 63.1053 27.7037C62.8747 27.1471 62.5367 26.6415 62.1107 26.2155C61.6846 25.7896 61.1789 25.4517 60.6222 25.2213C60.0656 24.9908 59.4691 24.8722 58.8666 24.8723C56.3335 24.8698 54.281 26.9267 54.281 29.4611L54.2848 48.6723C54.2844 49.2748 54.4027 49.8714 54.6331 50.4281C54.8634 50.9848 55.2013 51.4906 55.6273 51.9166C56.0533 52.3427 56.5591 52.6805 57.1158 52.9109C57.6725 53.1412 58.2692 53.2596 58.8716 53.2592C59.4742 53.2593 60.0709 53.1406 60.6275 52.9099C61.1842 52.6793 61.69 52.3412 62.1159 51.915C62.5418 51.4888 62.8796 50.9828 63.1098 50.4259C63.3401 49.8691 63.4584 49.2724 63.4579 48.6698L63.4548 29.4592Z" fill="#A4C439"/>
</svg>
