<svg width="36" height="36" viewBox="0 0 36 36" fill="none" xmlns="http://www.w3.org/2000/svg">
<path d="M20.7445 31.567C20.4285 31.2506 20.251 30.8217 20.251 30.3745C20.251 29.9273 20.4285 29.4984 20.7445 29.182L27.427 22.4995L12.937 22.4995C10.1025 22.4995 7.38412 21.3735 5.37983 19.3692C3.37553 17.3649 2.24953 14.6465 2.24953 11.812L2.24953 6.18703C2.24953 5.73948 2.42732 5.31026 2.74379 4.99379C3.06025 4.67733 3.48948 4.49953 3.93703 4.49953C4.38458 4.49953 4.8138 4.67732 5.13027 4.99379C5.44674 5.31026 5.62453 5.73948 5.62453 6.18703L5.62453 11.812C5.62453 13.7514 6.39495 15.6114 7.76631 16.9828C9.13767 18.3541 10.9976 19.1245 12.937 19.1245L27.427 19.1245L20.7445 12.442C20.5224 12.2358 20.36 11.9734 20.2745 11.6826C20.1889 11.3918 20.1834 11.0833 20.2585 10.7896C20.3336 10.4959 20.4865 10.228 20.7012 10.0139C20.9158 9.79982 21.1842 9.64761 21.478 9.57328C21.7714 9.49834 22.0795 9.50371 22.3701 9.58882C22.6606 9.67393 22.923 9.83566 23.1295 10.057L32.692 19.6195C33.008 19.9359 33.1855 20.3648 33.1855 20.812C33.1855 21.2592 33.008 21.6881 32.692 22.0045L23.1295 31.567C22.8131 31.883 22.3842 32.0605 21.937 32.0605C21.4898 32.0605 21.0609 31.883 20.7445 31.567Z" fill="#3753E1"/>
</svg>
