<svg width="58" height="68" viewBox="0 0 58 68" fill="none" xmlns="http://www.w3.org/2000/svg">
<path d="M47.9379 65.05C44.2629 68.6125 40.2504 68.05 36.3879 66.3625C32.3004 64.6375 28.5504 64.5625 24.2379 66.3625C18.8379 68.6875 15.9879 68.0125 12.7629 65.05C-5.53713 46.1875 -2.83713 17.4625 17.9379 16.4125C23.0004 16.675 26.5254 19.1875 29.4879 19.4125C33.9129 18.5125 38.1504 15.925 42.8754 16.2625C48.5379 16.7125 52.8129 18.9625 55.6254 23.0125C43.9254 30.025 46.7004 45.4375 57.4254 49.75C55.2879 55.375 52.5129 60.9625 47.9004 65.0875L47.9379 65.05ZM29.1129 16.1875C28.5504 7.825 35.3379 0.925 43.1379 0.25C44.2254 9.925 34.3629 17.125 29.1129 16.1875Z" fill="#222222"/>
</svg>
