<svg width="50" height="50" viewBox="0 0 50 50" fill="none" xmlns="http://www.w3.org/2000/svg">
<path d="M24.9997 26.041C23.0658 26.041 21.2111 26.8092 19.8437 28.1767C18.4762 29.5441 17.708 31.3988 17.708 33.3327C17.708 35.2666 18.4762 37.1212 19.8437 38.4887C21.2111 39.8561 23.0658 40.6243 24.9997 40.6243C26.9335 40.6243 28.7882 39.8561 30.1557 38.4887C31.5231 37.1212 32.2913 35.2666 32.2913 33.3327C32.2913 31.3988 31.5231 29.5441 30.1557 28.1767C28.7882 26.8092 26.9335 26.041 24.9997 26.041ZM21.8747 33.3327C21.8747 32.5039 22.2039 31.709 22.79 31.123C23.376 30.5369 24.1709 30.2077 24.9997 30.2077C25.8285 30.2077 26.6233 30.5369 27.2094 31.123C27.7954 31.709 28.1247 32.5039 28.1247 33.3327C28.1247 34.1615 27.7954 34.9563 27.2094 35.5424C26.6233 36.1284 25.8285 36.4577 24.9997 36.4577C24.1709 36.4577 23.376 36.1284 22.79 35.5424C22.2039 34.9563 21.8747 34.1615 21.8747 33.3327Z" fill="black"/>
<path d="M36.5125 10.6585L29.8896 1.37305L5.5375 20.8272L4.1875 20.8126V20.8335H3.125V45.8335H46.875V20.8335H44.8708L40.8833 9.16888L36.5125 10.6585ZM40.4687 20.8335H19.5771L35.1375 15.5293L38.3083 14.5147L40.4687 20.8335ZM32.3958 12.0626L16.3333 17.5376L29.0542 7.37513L32.3958 12.0626ZM7.29167 37.8522V28.8105C8.1712 28.5001 8.9701 27.9968 9.6298 27.3375C10.2895 26.6781 10.7933 25.8795 11.1042 25.0001H38.8958C39.2065 25.8799 39.7101 26.6789 40.3698 27.3386C41.0295 27.9983 41.8286 28.502 42.7083 28.8126V37.8543C41.8286 38.1649 41.0295 38.6686 40.3698 39.3283C39.7101 39.988 39.2065 40.787 38.8958 41.6668H11.1083C10.7962 40.787 10.2916 39.9879 9.63129 39.328C8.97099 38.668 8.17167 38.1638 7.29167 37.8522Z" fill="black"/>
</svg>
