<svg width="50" height="50" viewBox="0 0 50 50" fill="none" xmlns="http://www.w3.org/2000/svg">
<path d="M6.25 20.8327H43.75M14.5833 31.2493H14.6042M22.9167 31.2493H27.0833M6.25 16.666C6.25 15.0084 6.90848 13.4187 8.08058 12.2466C9.25269 11.0745 10.8424 10.416 12.5 10.416H37.5C39.1576 10.416 40.7473 11.0745 41.9194 12.2466C43.0915 13.4187 43.75 15.0084 43.75 16.666V33.3327C43.75 34.9903 43.0915 36.58 41.9194 37.7521C40.7473 38.9242 39.1576 39.5827 37.5 39.5827H12.5C10.8424 39.5827 9.25269 38.9242 8.08058 37.7521C6.90848 36.58 6.25 34.9903 6.25 33.3327V16.666Z" stroke="black" stroke-width="4.16667" stroke-linecap="round" stroke-linejoin="round"/>
</svg>
