<svg width="51" height="50" viewBox="0 0 51 50" fill="none" xmlns="http://www.w3.org/2000/svg">
<path d="M12.3778 12.2882C15.3171 9.3297 19.1965 7.48942 23.3472 7.08462C27.4979 6.67982 31.6597 7.73586 35.1153 10.0707C38.5708 12.4055 41.1035 15.8728 42.2766 19.8748C43.4498 23.8768 43.1899 28.1627 41.5417 31.9936C41.3699 32.3496 41.3136 32.7504 41.3805 33.1401L42.9569 40.7177C43.0177 41.0082 43.0053 41.3093 42.9208 41.5938C42.8364 41.8784 42.6826 42.1375 42.4733 42.3479C42.3016 42.5182 42.0973 42.6521 41.8725 42.7414C41.6478 42.8307 41.4073 42.8735 41.1655 42.8674H40.8073L33.1401 41.3268C32.7504 41.2799 32.3552 41.3355 31.9936 41.488C28.1627 43.1361 23.8768 43.396 19.8748 42.2229C15.8728 41.0497 12.4055 38.5171 10.0707 35.0615C7.73586 31.606 6.67982 27.4441 7.08462 23.2934C7.48943 19.1427 9.3297 15.2633 12.2882 12.324L12.3778 12.2882ZM32.2085 26.7448C32.5628 26.7448 32.9092 26.6397 33.2038 26.4429C33.4984 26.246 33.728 25.9663 33.8636 25.6389C33.9992 25.3116 34.0346 24.9514 33.9655 24.6039C33.8964 24.2564 33.7258 23.9372 33.4753 23.6867C33.2247 23.4361 32.9055 23.2655 32.558 23.1964C32.2105 23.1273 31.8503 23.1628 31.523 23.2983C31.1957 23.4339 30.9159 23.6635 30.719 23.9581C30.5222 24.2527 30.4171 24.5991 30.4171 24.9534C30.4171 25.4285 30.6059 25.8841 30.9418 26.2201C31.2778 26.556 31.7334 26.7448 32.2085 26.7448ZM25.043 26.7448C25.3973 26.7448 25.7436 26.6397 26.0382 26.4429C26.3328 26.246 26.5624 25.9663 26.698 25.6389C26.8336 25.3116 26.869 24.9514 26.7999 24.6039C26.7308 24.2564 26.5602 23.9372 26.3097 23.6867C26.0591 23.4361 25.7399 23.2655 25.3924 23.1964C25.0449 23.1273 24.6847 23.1628 24.3574 23.2983C24.0301 23.4339 23.7503 23.6635 23.5535 23.9581C23.3566 24.2527 23.2516 24.5991 23.2516 24.9534C23.2516 25.4285 23.4403 25.8841 23.7762 26.2201C24.1122 26.556 24.5678 26.7448 25.043 26.7448ZM17.8774 26.7448C18.2317 26.7448 18.578 26.6397 18.8726 26.4429C19.1672 26.246 19.3968 25.9663 19.5324 25.6389C19.668 25.3116 19.7035 24.9514 19.6343 24.6039C19.5652 24.2564 19.3946 23.9372 19.1441 23.6867C18.8935 23.4361 18.5743 23.2655 18.2268 23.1964C17.8793 23.1273 17.5192 23.1628 17.1918 23.2983C16.8645 23.4339 16.5847 23.6635 16.3879 23.9581C16.191 24.2527 16.086 24.5991 16.086 24.9534C16.086 25.4285 16.2747 25.8841 16.6106 26.2201C16.9466 26.556 17.4023 26.7448 17.8774 26.7448Z" fill="white"/>
</svg>
