<svg width="19" height="19" viewBox="0 0 19 19" fill="none" xmlns="http://www.w3.org/2000/svg">
<path fill-rule="evenodd" clip-rule="evenodd" d="M2.5 0.5C1.96957 0.5 1.46086 0.710714 1.08579 1.08579C0.710714 1.46086 0.5 1.96957 0.5 2.5V16.5C0.5 17.0304 0.710714 17.5391 1.08579 17.9142C1.46086 18.2893 1.96957 18.5 2.5 18.5H16.5C17.0304 18.5 17.5391 18.2893 17.9142 17.9142C18.2893 17.5391 18.5 17.0304 18.5 16.5V2.5C18.5 1.96957 18.2893 1.46086 17.9142 1.08579C17.5391 0.710714 17.0304 0.5 16.5 0.5H2.5ZM14.45 7.296C14.6376 7.10849 14.7431 6.85412 14.7432 6.58885C14.7433 6.32358 14.638 6.06914 14.4505 5.8815C14.263 5.69386 14.0086 5.58839 13.7434 5.5883C13.4781 5.5882 13.2236 5.69349 13.036 5.881L8.086 10.831L5.965 8.71C5.87216 8.61709 5.76192 8.54338 5.64059 8.49307C5.51926 8.44276 5.3892 8.41684 5.25785 8.4168C4.99258 8.4167 4.73814 8.52199 4.5505 8.7095C4.36286 8.89701 4.25739 9.15138 4.2573 9.41665C4.2572 9.68192 4.36249 9.93636 4.55 10.124L7.308 12.882C7.41015 12.9842 7.53144 13.0653 7.66493 13.1206C7.79842 13.1759 7.9415 13.2044 8.086 13.2044C8.2305 13.2044 8.37358 13.1759 8.50707 13.1206C8.64056 13.0653 8.76185 12.9842 8.864 12.882L14.45 7.296Z" fill="#3753E1"/>
</svg>
