<svg width="35" height="33" viewBox="0 0 35 33" fill="none" xmlns="http://www.w3.org/2000/svg">
<path d="M17.7516 0.258789C8.34274 0.258789 0.713135 6.43299 0.713135 14.0521C0.713135 18.9784 3.9006 23.2937 8.70112 25.7437L6.97291 32.0821C6.97291 32.0821 6.94097 32.3776 7.12661 32.4893C7.31216 32.601 7.53626 32.5156 7.53626 32.5156C8.07388 32.4368 13.7449 28.3448 14.737 27.6354C15.7163 27.7799 16.734 27.8521 17.7644 27.8521C27.1734 27.8521 34.803 21.678 34.803 14.0587C34.803 6.43949 27.1606 0.258789 17.7516 0.258789Z" fill="#3B1E20"/>
<path d="M8.32937 18.8598C7.78534 18.8598 7.34365 18.4263 7.34365 17.8943V11.8975H5.8075C5.27629 11.8975 4.84741 11.4574 4.84741 10.9122C4.84741 10.367 5.28269 9.92702 5.8075 9.92702H10.8448C11.3761 9.92702 11.8049 10.367 11.8049 10.9122C11.8049 11.4574 11.3697 11.8975 10.8448 11.8975H9.30868V17.8943C9.30868 18.4198 8.86068 18.8598 8.32296 18.8598H8.32937ZM16.9511 18.8467C16.5415 18.8467 16.2278 18.6759 16.1318 18.4001L15.6454 17.0864H12.6498L12.1634 18.4001C12.0674 18.6759 11.7538 18.8467 11.3441 18.8467C11.1265 18.8467 10.9152 18.8007 10.7169 18.7154C10.448 18.5839 10.1856 18.2358 10.4865 17.2834L12.8355 10.932C13.0019 10.4459 13.5075 9.94664 14.1477 9.93352C14.7877 9.92041 15.2997 10.4459 15.4597 10.932L17.8088 17.2834C18.1097 18.2358 17.8472 18.5972 17.5783 18.7154C17.3864 18.8073 17.1687 18.8467 16.9511 18.8467ZM15.1269 15.2999L14.1477 12.4361L13.1683 15.2999H15.1269ZM19.3898 18.7154C18.8777 18.7154 18.4488 18.3016 18.4488 17.7958V10.932C18.4488 10.3736 18.8969 9.92041 19.4538 9.92041C20.0106 9.92041 20.4587 10.3801 20.4587 10.932V16.8565H22.5453C23.0574 16.8565 23.4861 17.2703 23.4861 17.7761C23.4861 18.2819 23.0638 18.6957 22.5453 18.6957L19.3898 18.7154ZM23.8638 17.8351V10.9385C23.8638 10.3801 24.3118 9.92702 24.8496 9.92702C25.3872 9.92702 25.8352 10.3867 25.8352 10.9385V13.106L28.5875 10.2816C28.8904 9.97079 29.4633 9.998 29.81 10.3539C30.1358 10.6882 30.2205 11.2534 29.8804 11.6085L27.6274 13.9074L30.0468 17.1915C30.372 17.6185 30.2931 18.2836 29.8549 18.5972C29.4228 18.9256 28.7881 18.816 28.4787 18.4001L26.1744 15.267L25.8352 15.6152V17.8155C25.8352 19.1261 23.8638 19.1766 23.8638 17.8351Z" fill="#FFE812"/>
</svg>
