<svg width="37" height="36" viewBox="0 0 37 36" fill="none" xmlns="http://www.w3.org/2000/svg">
<path d="M21.2234 16.1311C20.7243 16.1569 20.4091 16.3892 20.2778 16.9053C20.1989 17.2925 20.1727 17.6797 20.1201 18.0669C20.1727 18.454 20.1989 18.8154 20.2778 19.1767C20.3828 19.7445 20.6981 20.0026 21.1971 20.0283C21.7751 20.0542 22.0639 19.8477 22.2478 19.2799C22.4842 18.4798 22.4842 17.6797 22.2478 16.8796C22.0903 16.3376 21.7751 16.1311 21.2234 16.1311Z" fill="white"/>
<path d="M15.0532 16.1335C14.4753 16.1076 14.1601 16.3141 14.0025 16.8819C13.766 17.6562 13.7923 18.4563 14.0025 19.2564C14.1601 19.85 14.4753 20.0565 15.0269 20.0307C15.5523 20.0307 15.8413 19.7726 15.9726 19.2048C16.0514 18.8435 16.0777 18.4563 16.1302 18.0691C16.0777 17.6821 16.0514 17.2949 15.9726 16.9077C15.8675 16.4173 15.5523 16.1592 15.0532 16.1335Z" fill="white"/>
<path d="M18.2042 0.64624C8.37979 0.64624 0.394165 8.49245 0.394165 18.1453C0.394165 27.7982 8.37979 35.6443 18.2042 35.6443C28.0287 35.6443 36.0143 27.7982 36.0143 18.1453C36.0143 8.49245 28.0287 0.64624 18.2042 0.64624ZM26.9254 24.5977C27.1093 25.0623 27.2406 25.5526 27.4245 26.0173C27.5558 26.3786 27.5558 26.74 27.2669 27.0238C26.9779 27.3078 26.6102 27.3336 26.2424 27.2045C25.7433 27.0496 25.2442 26.8948 24.7451 26.7141C23.9045 26.4044 23.1165 26.456 22.3021 26.8432C20.9624 27.4884 19.5439 27.7982 18.0466 27.7465C14.3428 27.6433 11.4795 26.0173 9.64067 22.8943C6.27831 17.242 9.43058 10.2216 15.8926 8.67307C16.6282 8.49245 17.3636 8.46662 18.1255 8.36339C23.0901 8.36339 27.2669 12.1316 27.8974 16.7516C28.16 18.6356 27.8974 20.4423 27.083 22.1716C26.6627 22.9717 26.6102 23.7718 26.9254 24.5977Z" fill="white"/>
</svg>
