<svg width="40" height="33" viewBox="0 0 40 33" fill="none" xmlns="http://www.w3.org/2000/svg">
<path fill-rule="evenodd" clip-rule="evenodd" d="M14.6459 0.152568C7.04042 0.0407655 0.720703 5.49347 0.720703 11.9243C0.720703 15.6364 2.51024 18.8568 5.97415 21.2211C5.97415 21.2211 4.70459 25.3087 4.72263 25.3906C4.74067 25.4728 5.01703 25.6339 5.11315 25.5812C5.20928 25.5286 9.70239 22.9144 9.70239 22.9144C12.9224 23.9928 14.8866 23.7274 15.2218 23.6821C15.2451 23.679 15.2606 23.6769 15.268 23.6764C14.9244 22.6947 14.6992 21.1661 14.9556 19.7253C16.298 12.1849 24.2107 9.83939 28.5474 10.2401C27.3499 4.79456 22.1482 0.262794 14.6459 0.152568ZM9.35959 6.34165C8.36184 6.34165 7.55329 7.13078 7.55329 8.10437C7.55329 9.07796 8.36184 9.86709 9.35959 9.86709C10.3572 9.86709 11.1661 9.07796 11.1661 8.10437C11.1661 7.13078 10.3572 6.34165 9.35959 6.34165ZM20.2955 6.34165C19.2979 6.34165 18.4892 7.13078 18.4892 8.10437C18.4892 9.07796 19.2979 9.86709 20.2955 9.86709C21.2931 9.86709 22.102 9.07796 22.102 8.10437C22.102 7.13078 21.2933 6.34165 20.2955 6.34165Z" fill="white"/>
<path fill-rule="evenodd" clip-rule="evenodd" d="M39.6802 20.8724C39.6802 15.3631 34.2195 11.1433 27.8844 11.1433C21.1766 11.1433 15.8267 15.4586 15.8267 20.9675C15.8267 26.4864 20.9154 31.0554 27.8921 31.0927C29.2963 31.1004 31.3879 30.7482 32.7982 30.1734C32.7982 30.1734 36.1696 32.1679 36.3585 32.1532C36.5472 32.1384 36.644 31.9925 36.6515 31.8675C36.659 31.7423 35.5773 28.6293 35.5773 28.6293C38.4722 26.4173 39.6802 23.98 39.6802 20.8724ZM23.4695 15.7144C22.5868 15.7144 21.8713 16.4137 21.8713 17.2767C21.8713 18.1393 22.5868 18.8388 23.4695 18.8388C24.3521 18.8388 25.0676 18.1395 25.0676 17.2767C25.0676 16.4137 24.3521 15.7144 23.4695 15.7144ZM32.0154 15.7144C31.1327 15.7144 30.4172 16.4137 30.4172 17.2767C30.4172 18.1393 31.1327 18.8388 32.0154 18.8388C32.8983 18.8388 33.6138 18.1395 33.6138 17.2767C33.6138 16.4137 32.8983 15.7144 32.0154 15.7144Z" fill="white"/>
</svg>
