<svg width="150" height="22" viewBox="0 0 150 22" fill="none" xmlns="http://www.w3.org/2000/svg">
<path d="M21.5999 0.321949L14.4877 20.956H7.14143L0 0.321949H6.14631L10.8292 15.2194L15.4829 0.321949H21.5999Z" fill="white" fill-opacity="0.4"/>
<path d="M39.6897 7.19997C39.6897 8.44874 39.397 9.5902 38.8116 10.6243C38.2458 11.639 37.3775 12.4585 36.2068 13.0829C35.0556 13.6877 33.6409 13.9902 31.9629 13.9902H29.1239V20.956H23.3873V0.321949H31.9629C33.6214 0.321949 35.0263 0.614631 36.1775 1.19999C37.3482 1.78536 38.2263 2.59511 38.8116 3.62925C39.397 4.66339 39.6897 5.85363 39.6897 7.19997ZM31.4068 9.42435C33.0263 9.42435 33.836 8.68289 33.836 7.19997C33.836 5.69753 33.0263 4.94632 31.4068 4.94632H29.1239V9.42435H31.4068Z" fill="white" fill-opacity="0.4"/>
<path d="M61.1064 20.956H55.3699L47.7309 9.42435V20.956H41.9943V0.321949H47.7309L55.3699 11.9999V0.321949H61.1064V20.956Z" fill="white" fill-opacity="0.4"/>
<path d="M75.7128 16.5658H82.1226V20.956H69.9763V0.321949H75.7128V16.5658Z" fill="white" fill-opacity="0.4"/>
<path d="M94.2458 21.1609C92.3141 21.1609 90.5385 20.7121 88.9189 19.8145C87.2994 18.8975 86.0116 17.6389 85.0555 16.039C84.119 14.4194 83.6507 12.5951 83.6507 10.5658C83.6507 8.53655 84.119 6.72192 85.0555 5.12193C86.0116 3.50242 87.2994 2.24389 88.9189 1.34634C90.5385 0.448778 92.3141 0 94.2458 0C96.197 0 97.9726 0.448778 99.5726 1.34634C101.192 2.24389 102.47 3.50242 103.407 5.12193C104.343 6.72192 104.812 8.53655 104.812 10.5658C104.812 12.5951 104.343 14.4194 103.407 16.039C102.47 17.6389 101.192 18.8975 99.5726 19.8145C97.9531 20.7121 96.1775 21.1609 94.2458 21.1609ZM94.2458 15.8341C95.7092 15.8341 96.8604 15.356 97.6994 14.3999C98.5579 13.4438 98.9872 12.1658 98.9872 10.5658C98.9872 8.92679 98.5579 7.63899 97.6994 6.70241C96.8604 5.74632 95.7092 5.26827 94.2458 5.26827C92.7628 5.26827 91.6019 5.74632 90.7628 6.70241C89.9238 7.63899 89.5043 8.92679 89.5043 10.5658C89.5043 12.1853 89.9238 13.4731 90.7628 14.4292C91.6019 15.3658 92.7628 15.8341 94.2458 15.8341Z" fill="white" fill-opacity="0.4"/>
<path d="M120.561 7.11216C120.229 6.56582 119.771 6.14631 119.185 5.85363C118.62 5.56095 117.946 5.41461 117.166 5.41461C115.722 5.41461 114.581 5.8829 113.742 6.81948C112.922 7.75606 112.512 9.01459 112.512 10.5951C112.512 12.3707 112.951 13.7268 113.829 14.6633C114.727 15.5804 116.024 16.039 117.722 16.039C119.732 16.039 121.166 15.1316 122.024 13.317H116.259V9.1902H126.971V14.7512C126.522 15.8438 125.859 16.8682 124.981 17.8243C124.122 18.7804 123.029 19.5706 121.702 20.195C120.376 20.7999 118.863 21.1023 117.166 21.1023C115.098 21.1023 113.263 20.6633 111.664 19.7853C110.083 18.8877 108.854 17.6487 107.976 16.0682C107.117 14.4682 106.688 12.6438 106.688 10.5951C106.688 8.56581 107.117 6.76094 107.976 5.18046C108.854 3.58047 110.083 2.34145 111.664 1.46341C113.244 0.565851 115.068 0.117073 117.137 0.117073C119.732 0.117073 121.878 0.74146 123.576 1.99024C125.273 3.23901 126.327 4.94632 126.737 7.11216H120.561Z" fill="white" fill-opacity="0.4"/>
<path d="M139.434 21.1609C137.502 21.1609 135.727 20.7121 134.107 19.8145C132.488 18.8975 131.2 17.6389 130.244 16.039C129.307 14.4194 128.839 12.5951 128.839 10.5658C128.839 8.53655 129.307 6.72192 130.244 5.12193C131.2 3.50242 132.488 2.24389 134.107 1.34634C135.727 0.448778 137.502 0 139.434 0C141.385 0 143.161 0.448778 144.761 1.34634C146.381 2.24389 147.659 3.50242 148.595 5.12193C149.532 6.72192 150 8.53655 150 10.5658C150 12.5951 149.532 14.4194 148.595 16.039C147.659 17.6389 146.381 18.8975 144.761 19.8145C143.141 20.7121 141.366 21.1609 139.434 21.1609ZM139.434 15.8341C140.898 15.8341 142.049 15.356 142.888 14.3999C143.746 13.4438 144.176 12.1658 144.176 10.5658C144.176 8.92679 143.746 7.63899 142.888 6.70241C142.049 5.74632 140.898 5.26827 139.434 5.26827C137.951 5.26827 136.79 5.74632 135.951 6.70241C135.112 7.63899 134.693 8.92679 134.693 10.5658C134.693 12.1853 135.112 13.4731 135.951 14.4292C136.79 15.3658 137.951 15.8341 139.434 15.8341Z" fill="white" fill-opacity="0.4"/>
</svg>
