<svg width="20" height="24" viewBox="0 0 20 24" fill="none" xmlns="http://www.w3.org/2000/svg">
<path fill-rule="evenodd" clip-rule="evenodd" d="M18.5712 18.4286H18.1426V21.4286H18.5712C18.9121 21.4286 19.2392 21.564 19.4803 21.8051C19.7214 22.0463 19.8569 22.3733 19.8569 22.7143C19.8569 23.0553 19.7214 23.3823 19.4803 23.6234C19.2392 23.8645 18.9121 24 18.5712 24H4.21401C3.1342 24 2.09861 23.571 1.33507 22.8075C0.571531 22.044 0.142578 21.0084 0.142578 19.9286V3.85714C0.142578 2.83417 0.548954 1.85309 1.27231 1.12973C1.99566 0.406376 2.97674 0 3.99972 0L15.9997 0C17.0227 0 18.0038 0.406376 18.7271 1.12973C19.4505 1.85309 19.8569 2.83417 19.8569 3.85714V17.1429C19.8569 17.4839 19.7214 17.8109 19.4803 18.052C19.2392 18.2931 18.9121 18.4286 18.5712 18.4286ZM4.21401 18.4286H15.5712V21.4286H4.21401C3.81618 21.4286 3.43465 21.2705 3.15335 20.9892C2.87204 20.7079 2.71401 20.3264 2.71401 19.9286C2.71401 19.5307 2.87204 19.1492 3.15335 18.8679C3.43465 18.5866 3.81618 18.4286 4.21401 18.4286ZM10.2929 4.84971C10.0753 4.80636 9.85087 4.8118 9.63568 4.86564C9.42049 4.91947 9.21992 5.02036 9.04842 5.16104C8.87691 5.30172 8.73874 5.47869 8.64386 5.67919C8.54898 5.8797 8.49975 6.09875 8.49972 6.32057C8.49972 6.60473 8.38684 6.87725 8.18591 7.07819C7.98498 7.27912 7.71245 7.392 7.42829 7.392C7.14413 7.392 6.87161 7.27912 6.67068 7.07819C6.46975 6.87725 6.35686 6.60473 6.35686 6.32057C6.35686 5.64633 6.54398 4.98531 6.89739 4.41112C7.2508 3.83692 7.75664 3.37207 8.35858 3.06831C8.96053 2.76456 9.63496 2.63383 10.3068 2.69066C10.9786 2.7475 11.6215 2.98968 12.1639 3.39024C12.7063 3.7908 13.1268 4.33402 13.3787 4.95942C13.6307 5.58483 13.7041 6.26789 13.5908 6.93255C13.4775 7.59721 13.182 8.21739 12.7372 8.72405C12.2923 9.23072 11.7156 9.60398 11.0712 9.80229C11.0641 10.0864 10.9445 10.3562 10.7385 10.5521C10.5326 10.7481 10.2573 10.8542 9.97315 10.8471C9.68899 10.8401 9.41927 10.7205 9.22332 10.5145C9.02737 10.3086 8.92125 10.0333 8.92829 9.74914V8.892C8.92829 8.30057 9.40829 7.82057 9.99972 7.82057C10.3717 7.81988 10.7302 7.68099 11.0055 7.43086C11.2809 7.18074 11.4534 6.83723 11.4898 6.46702C11.5261 6.0968 11.4235 5.7263 11.202 5.42744C10.9806 5.12858 10.6576 4.92268 10.2929 4.84971ZM9.99972 15.2297C9.6019 15.2297 9.22037 15.0717 8.93906 14.7904C8.65776 14.5091 8.49972 14.1275 8.49972 13.7297C8.49972 13.3319 8.65776 12.9504 8.93906 12.6691C9.22037 12.3877 9.6019 12.2297 9.99972 12.2297C10.3975 12.2297 10.7791 12.3877 11.0604 12.6691C11.3417 12.9504 11.4997 13.3319 11.4997 13.7297C11.4997 14.1275 11.3417 14.5091 11.0604 14.7904C10.7791 15.0717 10.3975 15.2297 9.99972 15.2297Z" fill="#222222"/>
</svg>
