<svg width="51" height="50" viewBox="0 0 51 50" fill="none" xmlns="http://www.w3.org/2000/svg">
<path d="M25.5 6.25C37.5833 6.25 47.3771 13.8833 47.3771 23.3021C47.3771 32.7188 37.5833 40.3521 25.5021 40.3521C24.2992 40.35 23.0976 40.2734 21.9042 40.1229L12.7208 46.1292C11.6771 46.6812 11.3083 46.6208 11.7375 45.2687L13.5958 37.6063C7.59584 34.5646 3.62709 29.2938 3.62709 23.3021C3.62709 13.8854 13.4188 6.25 25.5021 6.25M37.8104 23.0417L40.8729 20.075C41.0496 19.8915 41.1482 19.6465 41.1479 19.3918C41.1476 19.137 41.0484 18.8923 40.8713 18.7092C40.6941 18.5261 40.4528 18.4189 40.1982 18.4102C39.9436 18.4015 39.6955 18.4919 39.5063 18.6625L35.4896 22.55V19.3375C35.4896 19.0767 35.386 18.8266 35.2016 18.6422C35.0172 18.4578 34.7671 18.3542 34.5063 18.3542C34.2455 18.3542 33.9953 18.4578 33.8109 18.6422C33.6265 18.8266 33.5229 19.0767 33.5229 19.3375V24.6646C33.4883 24.8168 33.4883 24.9749 33.5229 25.1271V28.125C33.5229 28.3858 33.6265 28.6359 33.8109 28.8203C33.9953 29.0047 34.2455 29.1083 34.5063 29.1083C34.7671 29.1083 35.0172 29.0047 35.2016 28.8203C35.386 28.6359 35.4896 28.3858 35.4896 28.125V25.2854L36.3792 24.425L39.3542 28.6604C39.4285 28.7662 39.5228 28.8562 39.6319 28.9255C39.741 28.9948 39.8627 29.0419 39.99 29.0641C40.1173 29.0864 40.2477 29.0833 40.3738 29.0552C40.4999 29.027 40.6193 28.9743 40.725 28.9C40.8307 28.8257 40.9208 28.7313 40.9901 28.6223C41.0594 28.5132 41.1065 28.3915 41.1287 28.2642C41.151 28.1369 41.1479 28.0065 41.1198 27.8804C41.0916 27.7542 41.0389 27.6349 40.9646 27.5292L37.8104 23.0417ZM31.6479 27.05H28.6063V19.3687C28.5946 19.1161 28.486 18.8776 28.3031 18.7029C28.1202 18.5282 27.8769 18.4307 27.624 18.4307C27.371 18.4307 27.1278 18.5282 26.9448 18.7029C26.7619 18.8776 26.6533 19.1161 26.6417 19.3687V28.0333C26.6417 28.575 27.0792 29.0167 27.6229 29.0167H31.6479C31.9087 29.0167 32.1588 28.9131 32.3432 28.7287C32.5277 28.5442 32.6313 28.2941 32.6313 28.0333C32.6313 27.7725 32.5277 27.5224 32.3432 27.338C32.1588 27.1536 31.9087 27.05 31.6479 27.05ZM19.4458 24.7771L20.8958 21.2188L22.225 24.775L19.4458 24.7771ZM24.7021 25.7917L24.7063 25.7583C24.7056 25.5106 24.611 25.2724 24.4417 25.0917L22.2625 19.2583C22.1712 18.9804 21.9971 18.7369 21.7637 18.5604C21.5303 18.3839 21.2486 18.2829 20.9563 18.2708C20.662 18.2707 20.3746 18.3596 20.1318 18.5258C19.889 18.692 19.7022 18.9277 19.5958 19.2021L16.1333 27.6917C16.0347 27.9331 16.036 28.2039 16.137 28.4443C16.238 28.6848 16.4304 28.8753 16.6719 28.974C16.9133 29.0726 17.1841 29.0713 17.4246 28.9703C17.665 28.8693 17.8555 28.6769 17.9542 28.4354L18.6458 26.7417H22.9583L23.5792 28.4083C23.6215 28.5329 23.6884 28.6477 23.776 28.746C23.8635 28.8442 23.9699 28.9239 24.0888 28.9803C24.2076 29.0367 24.3366 29.0686 24.4681 29.0743C24.5996 29.0799 24.7308 29.0591 24.8541 29.0131C24.9774 28.9671 25.0901 28.8968 25.1857 28.8064C25.2814 28.716 25.3579 28.6073 25.4107 28.4868C25.4636 28.3663 25.4917 28.2364 25.4934 28.1048C25.4952 27.9733 25.4705 27.8427 25.4208 27.7208L24.7021 25.7917ZM17.7792 19.3792C17.7797 19.2501 17.7547 19.1221 17.7056 19.0027C17.6565 18.8833 17.5843 18.7747 17.4931 18.6834C17.4019 18.592 17.2936 18.5195 17.1742 18.4702C17.0549 18.4208 16.927 18.3956 16.7979 18.3958H10.0375C9.77671 18.3958 9.5266 18.4994 9.34219 18.6838C9.15777 18.8683 9.05417 19.1184 9.05417 19.3792C9.05417 19.64 9.15777 19.8901 9.34219 20.0745C9.5266 20.2589 9.77671 20.3625 10.0375 20.3625H12.4542V28.1458C12.4542 28.4066 12.5578 28.6567 12.7422 28.8412C12.9266 29.0256 13.1767 29.1292 13.4375 29.1292C13.6983 29.1292 13.9484 29.0256 14.1328 28.8412C14.3172 28.6567 14.4208 28.4066 14.4208 28.1458V20.3625H16.7958C16.9251 20.3631 17.0532 20.338 17.1728 20.2888C17.2923 20.2395 17.401 20.1671 17.4924 20.0757C17.5838 19.9843 17.6562 19.8757 17.7054 19.7561C17.7547 19.6366 17.7797 19.5085 17.7792 19.3792Z" fill="white"/>
</svg>
