<svg width="205" height="29" viewBox="0 0 205 29" fill="none" xmlns="http://www.w3.org/2000/svg">
<path d="M29.52 0.439999L19.8 28.64H9.76L0 0.439999H8.4L14.8 20.8L21.16 0.439999H29.52Z" fill="white"/>
<path d="M54.2428 9.84C54.2428 11.5467 53.8428 13.1067 53.0428 14.52C52.2695 15.9067 51.0828 17.0267 49.4828 17.88C47.9095 18.7067 45.9761 19.12 43.6828 19.12H39.8028V28.64H31.9628V0.439999H43.6828C45.9495 0.439999 47.8695 0.839999 49.4428 1.64C51.0428 2.44 52.2428 3.54667 53.0428 4.96C53.8428 6.37333 54.2428 8 54.2428 9.84ZM42.9228 12.88C45.1361 12.88 46.2428 11.8667 46.2428 9.84C46.2428 7.78667 45.1361 6.76 42.9228 6.76H39.8028V12.88H42.9228Z" fill="white"/>
<path d="M83.5125 28.64H75.6725L65.2325 12.88V28.64H57.3925V0.439999H65.2325L75.6725 16.4V0.439999H83.5125V28.64Z" fill="white"/>
<path d="M103.475 22.64H112.235V28.64H95.6347V0.439999H103.475V22.64Z" fill="white"/>
<path d="M128.803 28.92C126.163 28.92 123.736 28.3067 121.523 27.08C119.31 25.8267 117.55 24.1067 116.243 21.92C114.963 19.7067 114.323 17.2133 114.323 14.44C114.323 11.6667 114.963 9.18667 116.243 7C117.55 4.78667 119.31 3.06667 121.523 1.84C123.736 0.613333 126.163 0 128.803 0C131.47 0 133.896 0.613333 136.083 1.84C138.296 3.06667 140.043 4.78667 141.323 7C142.603 9.18667 143.243 11.6667 143.243 14.44C143.243 17.2133 142.603 19.7067 141.323 21.92C140.043 24.1067 138.296 25.8267 136.083 27.08C133.87 28.3067 131.443 28.92 128.803 28.92ZM128.803 21.64C130.803 21.64 132.376 20.9867 133.523 19.68C134.696 18.3733 135.283 16.6267 135.283 14.44C135.283 12.2 134.696 10.44 133.523 9.16C132.376 7.85333 130.803 7.2 128.803 7.2C126.776 7.2 125.19 7.85333 124.043 9.16C122.896 10.44 122.323 12.2 122.323 14.44C122.323 16.6533 122.896 18.4133 124.043 19.72C125.19 21 126.776 21.64 128.803 21.64Z" fill="white"/>
<path d="M164.768 9.72C164.314 8.97333 163.688 8.4 162.887 8C162.114 7.6 161.194 7.4 160.128 7.4C158.154 7.4 156.594 8.04 155.447 9.32C154.327 10.6 153.768 12.32 153.768 14.48C153.768 16.9067 154.368 18.76 155.568 20.04C156.794 21.2933 158.568 21.92 160.887 21.92C163.634 21.92 165.594 20.68 166.768 18.2H158.887V12.56H173.527V20.16C172.914 21.6533 172.007 23.0533 170.807 24.36C169.634 25.6667 168.141 26.7467 166.327 27.6C164.514 28.4267 162.448 28.84 160.128 28.84C157.301 28.84 154.794 28.24 152.607 27.04C150.447 25.8133 148.768 24.12 147.568 21.96C146.394 19.7733 145.807 17.28 145.807 14.48C145.807 11.7067 146.394 9.24 147.568 7.08C148.768 4.89333 150.447 3.2 152.607 2C154.768 0.773334 157.261 0.16 160.087 0.16C163.634 0.16 166.567 1.01333 168.887 2.72C171.208 4.42667 172.648 6.76 173.208 9.72H164.768Z" fill="white"/>
<path d="M190.561 28.92C187.921 28.92 185.494 28.3067 183.281 27.08C181.068 25.8267 179.308 24.1067 178.001 21.92C176.721 19.7067 176.081 17.2133 176.081 14.44C176.081 11.6667 176.721 9.18667 178.001 7C179.308 4.78667 181.068 3.06667 183.281 1.84C185.494 0.613333 187.921 0 190.561 0C193.228 0 195.654 0.613333 197.841 1.84C200.054 3.06667 201.801 4.78667 203.081 7C204.361 9.18667 205.001 11.6667 205.001 14.44C205.001 17.2133 204.361 19.7067 203.081 21.92C201.801 24.1067 200.054 25.8267 197.841 27.08C195.628 28.3067 193.201 28.92 190.561 28.92ZM190.561 21.64C192.561 21.64 194.134 20.9867 195.281 19.68C196.454 18.3733 197.041 16.6267 197.041 14.44C197.041 12.2 196.454 10.44 195.281 9.16C194.134 7.85333 192.561 7.2 190.561 7.2C188.534 7.2 186.948 7.85333 185.801 9.16C184.654 10.44 184.081 12.2 184.081 14.44C184.081 16.6533 184.654 18.4133 185.801 19.72C186.948 21 188.534 21.64 190.561 21.64Z" fill="white"/>
</svg>
