<svg width="150" height="22" viewBox="0 0 150 22" fill="none" xmlns="http://www.w3.org/2000/svg">
<path d="M21.5999 0.741627L14.4877 21.3757H7.14143L0 0.741627H6.14631L10.8292 15.6391L15.4829 0.741627H21.5999Z" fill="black" fill-opacity="0.9"/>
<path d="M39.6897 7.61964C39.6897 8.86842 39.397 10.0099 38.8116 11.044C38.2458 12.0586 37.3775 12.8782 36.2068 13.5025C35.0556 14.1074 33.6409 14.4099 31.9629 14.4099H29.1239V21.3757H23.3873V0.741627H31.9629C33.6214 0.741627 35.0263 1.03431 36.1775 1.61967C37.3482 2.20504 38.2263 3.01479 38.8116 4.04893C39.397 5.08307 39.6897 6.27331 39.6897 7.61964ZM31.4068 9.84402C33.0263 9.84402 33.836 9.10256 33.836 7.61964C33.836 6.11721 33.0263 5.366 31.4068 5.366H29.1239V9.84402H31.4068Z" fill="black" fill-opacity="0.9"/>
<path d="M61.1064 21.3757H55.3699L47.7309 9.84402V21.3757H41.9943V0.741627H47.7309L55.3699 12.4196V0.741627H61.1064V21.3757Z" fill="black" fill-opacity="0.9"/>
<path d="M75.7128 16.9855H82.1226V21.3757H69.9763V0.741627H75.7128V16.9855Z" fill="black" fill-opacity="0.9"/>
<path d="M94.2458 21.5806C92.3141 21.5806 90.5385 21.1318 88.9189 20.2342C87.2994 19.3172 86.0116 18.0586 85.0555 16.4586C84.119 14.8391 83.6507 13.0147 83.6507 10.9855C83.6507 8.95622 84.119 7.1416 85.0555 5.54161C86.0116 3.9221 87.2994 2.66357 88.9189 1.76601C90.5385 0.868456 92.3141 0.419678 94.2458 0.419678C96.197 0.419678 97.9726 0.868456 99.5726 1.76601C101.192 2.66357 102.47 3.9221 103.407 5.54161C104.343 7.1416 104.812 8.95622 104.812 10.9855C104.812 13.0147 104.343 14.8391 103.407 16.4586C102.47 18.0586 101.192 19.3172 99.5726 20.2342C97.9531 21.1318 96.1775 21.5806 94.2458 21.5806ZM94.2458 16.2538C95.7092 16.2538 96.8604 15.7757 97.6994 14.8196C98.5579 13.8635 98.9872 12.5855 98.9872 10.9855C98.9872 9.34647 98.5579 8.05867 97.6994 7.12209C96.8604 6.16599 95.7092 5.68795 94.2458 5.68795C92.7628 5.68795 91.6019 6.16599 90.7628 7.12209C89.9238 8.05867 89.5043 9.34647 89.5043 10.9855C89.5043 12.605 89.9238 13.8928 90.7628 14.8489C91.6019 15.7855 92.7628 16.2538 94.2458 16.2538Z" fill="black" fill-opacity="0.9"/>
<path d="M120.561 7.53184C120.229 6.9855 119.771 6.56599 119.185 6.27331C118.62 5.98063 117.946 5.83429 117.166 5.83429C115.722 5.83429 114.581 6.30258 113.742 7.23916C112.922 8.17574 112.512 9.43427 112.512 11.0148C112.512 12.7904 112.951 14.1464 113.829 15.083C114.727 16.0001 116.024 16.4586 117.722 16.4586C119.732 16.4586 121.166 15.5513 122.024 13.7367H116.259V9.60988H126.971V15.1708C126.522 16.2635 125.859 17.2879 124.981 18.244C124.122 19.2001 123.029 19.9903 121.702 20.6147C120.376 21.2196 118.863 21.522 117.166 21.522C115.098 21.522 113.263 21.083 111.664 20.205C110.083 19.3074 108.854 18.0684 107.976 16.4879C107.117 14.8879 106.688 13.0635 106.688 11.0148C106.688 8.98549 107.117 7.18062 107.976 5.60014C108.854 4.00015 110.083 2.76113 111.664 1.88309C113.244 0.985529 115.068 0.536751 117.137 0.536751C119.732 0.536751 121.878 1.16114 123.576 2.40991C125.273 3.65869 126.327 5.366 126.737 7.53184H120.561Z" fill="black" fill-opacity="0.9"/>
<path d="M139.434 21.5806C137.502 21.5806 135.727 21.1318 134.107 20.2342C132.488 19.3172 131.2 18.0586 130.244 16.4586C129.307 14.8391 128.839 13.0147 128.839 10.9855C128.839 8.95622 129.307 7.1416 130.244 5.54161C131.2 3.9221 132.488 2.66357 134.107 1.76601C135.727 0.868456 137.502 0.419678 139.434 0.419678C141.385 0.419678 143.161 0.868456 144.761 1.76601C146.381 2.66357 147.659 3.9221 148.595 5.54161C149.532 7.1416 150 8.95622 150 10.9855C150 13.0147 149.532 14.8391 148.595 16.4586C147.659 18.0586 146.381 19.3172 144.761 20.2342C143.141 21.1318 141.366 21.5806 139.434 21.5806ZM139.434 16.2538C140.898 16.2538 142.049 15.7757 142.888 14.8196C143.746 13.8635 144.176 12.5855 144.176 10.9855C144.176 9.34647 143.746 8.05867 142.888 7.12209C142.049 6.16599 140.898 5.68795 139.434 5.68795C137.951 5.68795 136.79 6.16599 135.951 7.12209C135.112 8.05867 134.693 9.34647 134.693 10.9855C134.693 12.605 135.112 13.8928 135.951 14.8489C136.79 15.7855 137.951 16.2538 139.434 16.2538Z" fill="black" fill-opacity="0.9"/>
</svg>
