<svg width="68" height="64" viewBox="0 0 68 64" fill="none" xmlns="http://www.w3.org/2000/svg">
<path d="M40.6661 50V56.6667L47.3328 60V63.3333H20.6661L20.6528 60.0133L27.3328 56.6667V50H3.97279C3.53505 49.9965 3.10228 49.9068 2.69919 49.7361C2.29611 49.5653 1.9306 49.3169 1.62355 49.0049C1.31649 48.6929 1.0739 48.3234 0.909625 47.9177C0.745349 47.5119 0.662607 47.0777 0.666123 46.64V3.36C0.666123 1.50333 2.18279 0 3.97279 0H64.0261C65.8528 0 67.3328 1.49667 67.3328 3.35667V46.64C67.3328 48.4967 65.8161 50 64.0261 50H40.6661ZM7.33279 6.66667V36.6667H60.6661V6.66667H7.33279Z" fill="#222222"/>
<path d="M38.6648 28.3581C37.8378 29.2024 36.9348 29.0691 36.0655 28.6691C35.1456 28.2603 34.3017 28.2425 33.3312 28.6691C32.1159 29.2202 31.4745 29.0602 30.7488 28.3581C26.6304 23.8875 27.238 17.0795 31.9134 16.8306C33.0527 16.8928 33.846 17.4883 34.5127 17.5416C35.5085 17.3283 36.4622 16.7151 37.5255 16.7951C38.7999 16.9017 39.762 17.435 40.3949 18.3949C37.7618 20.0569 38.3864 23.7098 40.8 24.7319C40.319 26.065 39.6944 27.3893 38.6564 28.367L38.6648 28.3581ZM34.4283 16.7773C34.3017 14.7953 35.8292 13.16 37.5846 13C37.8294 15.293 35.6098 16.9995 34.4283 16.7773Z" fill="#222222"/>
</svg>
