<svg width="44" height="50" viewBox="0 0 44 50" fill="none" xmlns="http://www.w3.org/2000/svg">
<g clip-path="url(#clip0_278_1048)">
<path d="M36.7627 3.89155C34.4557 1.26208 30.2855 0.134766 24.9506 0.134766H9.46713C8.93926 0.134684 8.42869 0.322963 8.02725 0.665734C7.62581 1.00851 7.35986 1.48327 7.27723 2.00463L0.830207 42.8932C0.702061 43.6995 1.3264 44.4296 2.14362 44.4296H11.7026L14.1032 29.2026L14.0287 29.6795C14.1997 28.6031 15.1203 27.8093 16.2103 27.8093H20.7527C29.6762 27.8093 36.6635 24.1848 38.7045 13.6998C38.7651 13.3897 38.8176 13.0879 38.863 12.793C38.6054 12.6566 38.6054 12.6566 38.863 12.793C39.4708 8.91771 38.8588 6.2798 36.7627 3.89155Z" fill="#27346A"/>
<path d="M17.7608 11.397C18.0221 11.2724 18.308 11.2079 18.5974 11.2083H30.7362C32.1736 11.2083 33.5143 11.3018 34.7395 11.499C35.0823 11.5537 35.4234 11.619 35.7622 11.6947C36.2423 11.8007 36.717 11.9304 37.1843 12.0833C37.7867 12.2844 38.3476 12.5187 38.8632 12.793C39.4708 8.91622 38.8588 6.2798 36.7627 3.89155C34.4544 1.26208 30.2855 0.134766 24.9506 0.134766H9.4658C8.37557 0.134766 7.44809 0.928474 7.27723 2.00463L0.830208 42.8917C0.702062 43.6993 1.3264 44.4285 2.14229 44.4285H11.7026L16.6832 12.844C16.7322 12.5336 16.8559 12.2397 17.0436 11.9877C17.2313 11.7356 17.4775 11.5329 17.7608 11.397Z" fill="#27346A"/>
<path d="M38.7041 13.6998C36.6631 24.1832 29.676 27.8092 20.7523 27.8092H16.2086C15.1185 27.8092 14.1978 28.6031 14.0285 29.6794L11.0419 48.6123C10.9303 49.318 11.476 49.9574 12.1899 49.9574H20.2478C20.7094 49.9572 21.1558 49.7924 21.5067 49.4926C21.8577 49.1927 22.0901 48.7775 22.1622 48.3216L22.2407 47.911L23.7594 38.2858L23.8573 37.7539C23.9294 37.298 24.1618 36.8828 24.5127 36.583C24.8636 36.2831 25.3099 36.1183 25.7715 36.1181H26.9775C34.7833 36.1181 40.8953 32.9469 42.6814 23.7754C43.427 19.9426 43.0412 16.7426 41.069 14.495C40.4708 13.8142 39.728 13.2519 38.8626 12.793C38.8157 13.0893 38.7649 13.3897 38.7041 13.6998Z" fill="#2790C3"/>
<path d="M36.7271 11.9423C36.4089 11.8493 36.0876 11.7671 35.7639 11.6956C35.4249 11.6211 35.0839 11.5562 34.7412 11.5012C33.5147 11.3027 32.175 11.209 30.7362 11.209H18.599C18.3093 11.2085 18.0233 11.2735 17.7624 11.3992C17.4786 11.5346 17.2322 11.7372 17.0444 11.9893C16.8566 12.2415 16.7331 12.5356 16.6846 12.8462L14.1048 29.2035L14.0303 29.6803C14.2 28.604 15.1205 27.8101 16.2107 27.8101H20.7544C29.678 27.8101 36.665 24.1856 38.7061 13.7007C38.7669 13.3906 38.8179 13.0901 38.8647 12.7939C38.3479 12.5213 37.7883 12.2851 37.1859 12.0855C37.0339 12.0351 36.881 11.9873 36.7273 11.9423" fill="#1F264F"/>
</g>
<defs>
<clipPath id="clip0_278_1048">
<rect width="42.39" height="50" fill="white" transform="translate(0.804688)"/>
</clipPath>
</defs>
</svg>
