<svg width="18" height="20" viewBox="0 0 18 20" fill="none" xmlns="http://www.w3.org/2000/svg">
<path d="M0.637322 1.43383L9.37732 10.0048L0.702322 18.6548C0.560396 18.47 0.450224 18.2628 0.376322 18.0418C0.338101 17.7916 0.338101 17.5371 0.376322 17.2868V2.56683C0.350322 2.17183 0.441322 1.77683 0.636322 1.43383M13.1423 6.26683L10.2893 9.09283L1.65332 0.599834C1.93332 0.502834 2.23332 0.475835 2.52632 0.521835C2.98632 0.647835 3.42532 0.841834 3.82832 1.09483L11.6443 5.41983C12.1523 5.69283 12.6473 5.97983 13.1423 6.26683ZM10.2903 10.9298L13.1293 13.7178L11.0713 14.8638L4.79232 18.3538C4.27232 18.6408 3.75032 18.9148 3.24232 19.2278C3.02495 19.3632 2.78121 19.4506 2.52737 19.4842C2.27353 19.5178 2.01543 19.4969 1.77032 19.4228L10.2903 10.9298ZM17.6503 10.0048C17.6576 10.3545 17.5693 10.6995 17.3948 11.0027C17.2203 11.3058 16.9663 11.5555 16.6603 11.7248L14.3143 13.0268L11.2273 10.0048L14.3273 6.93083C15.1223 7.37383 15.9043 7.81683 16.6853 8.23383C16.9968 8.40793 17.2526 8.66664 17.4232 8.98004C17.5938 9.29345 17.6732 9.64874 17.6503 10.0048Z" fill="white"/>
</svg>
