<svg width="333" height="315" viewBox="0 0 333 315" fill="none" xmlns="http://www.w3.org/2000/svg">
<g filter="url(#filter0_ddddd_0_221)">
<rect x="123" y="101.829" width="86" height="54" rx="16" fill="#3753E1"/>
<path d="M151.812 119.446V137.829H148.993V122.239H148.892L144.499 125.108V122.442L149.069 119.446H151.812ZM162.882 138.083C158.629 138.083 156.128 134.655 156.128 128.638C156.128 122.658 158.654 119.192 162.882 119.192C167.097 119.192 169.623 122.658 169.636 128.638C169.623 134.655 167.135 138.083 162.882 138.083ZM158.921 128.638C158.908 133.221 160.394 135.671 162.882 135.671C165.357 135.671 166.843 133.221 166.843 128.638C166.843 124.067 165.345 121.566 162.882 121.554C160.406 121.566 158.921 124.067 158.921 128.638ZM175.397 130.407C173.464 130.427 172.409 128.991 172.429 126.892C172.409 124.821 173.513 123.386 175.397 123.396C177.341 123.386 178.356 124.821 178.366 126.892C178.356 129.001 177.302 130.427 175.397 130.407ZM174.03 137.829L183.737 123.688H185.515L175.808 137.829H174.03ZM174.03 126.892C174.04 128.19 174.489 129.03 175.397 129.04C176.315 129.03 176.745 128.19 176.745 126.892C176.745 125.622 176.345 124.753 175.397 124.763C174.489 124.782 174.04 125.632 174.03 126.892ZM181.354 134.606C181.345 132.517 182.438 131.081 184.323 131.091C186.257 131.081 187.282 132.517 187.292 134.606C187.282 136.696 186.228 138.122 184.323 138.122C182.399 138.122 181.345 136.687 181.354 134.606ZM182.956 134.606C182.966 135.886 183.415 136.735 184.323 136.735C185.241 136.735 185.671 135.886 185.671 134.606C185.671 133.317 185.271 132.458 184.323 132.458C183.425 132.478 182.966 133.327 182.956 134.606Z" fill="white"/>
<path d="M165.456 169.423C165.84 170.093 166.807 170.093 167.191 169.423L174.406 156.838C174.788 156.171 174.307 155.341 173.539 155.341H159.109C158.341 155.341 157.859 156.171 158.242 156.838L165.456 169.423Z" fill="#3753E1"/>
</g>
<defs>
<filter id="filter0_ddddd_0_221" x="0.959649" y="0.808161" width="332" height="314.097" filterUnits="userSpaceOnUse" color-interpolation-filters="sRGB">
<feFlood flood-opacity="0" result="BackgroundImageFix"/>
<feColorMatrix in="SourceAlpha" type="matrix" values="0 0 0 0 0 0 0 0 0 0 0 0 0 0 0 0 0 0 127 0" result="hardAlpha"/>
<feOffset dx="0.0261025" dy="0.59783"/>
<feGaussianBlur stdDeviation="2.8536"/>
<feColorMatrix type="matrix" values="0 0 0 0 0.352941 0 0 0 0 0.447059 0 0 0 0 0.917647 0 0 0 0.02768 0"/>
<feBlend mode="normal" in2="BackgroundImageFix" result="effect1_dropShadow_0_221"/>
<feColorMatrix in="SourceAlpha" type="matrix" values="0 0 0 0 0 0 0 0 0 0 0 0 0 0 0 0 0 0 127 0" result="hardAlpha"/>
<feOffset dx="0.116693" dy="2.67265"/>
<feGaussianBlur stdDeviation="6.5928"/>
<feColorMatrix type="matrix" values="0 0 0 0 0.352941 0 0 0 0 0.447059 0 0 0 0 0.917647 0 0 0 0.04384 0"/>
<feBlend mode="normal" in2="effect1_dropShadow_0_221" result="effect2_dropShadow_0_221"/>
<feColorMatrix in="SourceAlpha" type="matrix" values="0 0 0 0 0 0 0 0 0 0 0 0 0 0 0 0 0 0 127 0" result="hardAlpha"/>
<feOffset dx="0.290198" dy="6.64647"/>
<feGaussianBlur stdDeviation="15.0552"/>
<feColorMatrix type="matrix" values="0 0 0 0 0.352941 0 0 0 0 0.447059 0 0 0 0 0.917647 0 0 0 0.05616 0"/>
<feBlend mode="normal" in2="effect2_dropShadow_0_221" result="effect3_dropShadow_0_221"/>
<feColorMatrix in="SourceAlpha" type="matrix" values="0 0 0 0 0 0 0 0 0 0 0 0 0 0 0 0 0 0 127 0" result="hardAlpha"/>
<feOffset dx="0.565041" dy="12.9413"/>
<feGaussianBlur stdDeviation="32.0784"/>
<feColorMatrix type="matrix" values="0 0 0 0 0.352941 0 0 0 0 0.447059 0 0 0 0 0.917647 0 0 0 0.07232 0"/>
<feBlend mode="normal" in2="effect3_dropShadow_0_221" result="effect4_dropShadow_0_221"/>
<feColorMatrix in="SourceAlpha" type="matrix" values="0 0 0 0 0 0 0 0 0 0 0 0 0 0 0 0 0 0 127 0" result="hardAlpha"/>
<feOffset dx="0.959649" dy="21.9791"/>
<feGaussianBlur stdDeviation="61.5"/>
<feColorMatrix type="matrix" values="0 0 0 0 0.352941 0 0 0 0 0.447059 0 0 0 0 0.917647 0 0 0 0.1 0"/>
<feBlend mode="normal" in2="effect4_dropShadow_0_221" result="effect5_dropShadow_0_221"/>
<feBlend mode="normal" in="SourceGraphic" in2="effect5_dropShadow_0_221" result="shape"/>
</filter>
</defs>
</svg>
