<svg width="333" height="315" viewBox="0 0 333 315" fill="none" xmlns="http://www.w3.org/2000/svg">
<g filter="url(#filter0_ddddd_0_204)">
<rect x="123" y="101.829" width="86" height="54" rx="16" fill="#3753E1"/>
<path d="M151.951 119.446V137.829H149.133V122.239H149.031L144.639 125.108V122.442L149.209 119.446H151.951ZM162.869 138.083C159.391 138.083 156.775 135.963 156.648 133.03H159.365C159.518 134.592 161.016 135.734 162.869 135.747C165.104 135.734 166.703 134.122 166.703 131.938C166.703 129.704 165.053 128.079 162.742 128.054C161.27 128.054 160.14 128.549 159.518 129.679H156.877L158.07 119.446H168.48V121.833H160.381L159.771 126.987H159.949C160.711 126.251 162.006 125.756 163.402 125.743C166.868 125.756 169.42 128.32 169.42 131.862C169.42 135.48 166.703 138.083 162.869 138.083ZM175.258 130.407C173.324 130.427 172.27 128.991 172.289 126.892C172.27 124.821 173.373 123.386 175.258 123.396C177.201 123.386 178.217 124.821 178.227 126.892C178.217 129.001 177.162 130.427 175.258 130.407ZM173.891 137.829L183.598 123.688H185.375L175.668 137.829H173.891ZM173.891 126.892C173.9 128.19 174.35 129.03 175.258 129.04C176.176 129.03 176.605 128.19 176.605 126.892C176.605 125.622 176.205 124.753 175.258 124.763C174.35 124.782 173.9 125.632 173.891 126.892ZM181.215 134.606C181.205 132.517 182.299 131.081 184.184 131.091C186.117 131.081 187.143 132.517 187.152 134.606C187.143 136.696 186.088 138.122 184.184 138.122C182.26 138.122 181.205 136.687 181.215 134.606ZM182.816 134.606C182.826 135.886 183.275 136.735 184.184 136.735C185.102 136.735 185.531 135.886 185.531 134.606C185.531 133.317 185.131 132.458 184.184 132.458C183.285 132.478 182.826 133.327 182.816 134.606Z" fill="white"/>
<path d="M165.456 169.423C165.84 170.093 166.807 170.093 167.191 169.423L174.406 156.838C174.788 156.171 174.307 155.341 173.539 155.341H159.109C158.341 155.341 157.859 156.171 158.242 156.838L165.456 169.423Z" fill="#3753E1"/>
</g>
<defs>
<filter id="filter0_ddddd_0_204" x="0.959649" y="0.808161" width="332" height="314.097" filterUnits="userSpaceOnUse" color-interpolation-filters="sRGB">
<feFlood flood-opacity="0" result="BackgroundImageFix"/>
<feColorMatrix in="SourceAlpha" type="matrix" values="0 0 0 0 0 0 0 0 0 0 0 0 0 0 0 0 0 0 127 0" result="hardAlpha"/>
<feOffset dx="0.0261025" dy="0.59783"/>
<feGaussianBlur stdDeviation="2.8536"/>
<feColorMatrix type="matrix" values="0 0 0 0 0.352941 0 0 0 0 0.447059 0 0 0 0 0.917647 0 0 0 0.02768 0"/>
<feBlend mode="normal" in2="BackgroundImageFix" result="effect1_dropShadow_0_204"/>
<feColorMatrix in="SourceAlpha" type="matrix" values="0 0 0 0 0 0 0 0 0 0 0 0 0 0 0 0 0 0 127 0" result="hardAlpha"/>
<feOffset dx="0.116693" dy="2.67265"/>
<feGaussianBlur stdDeviation="6.5928"/>
<feColorMatrix type="matrix" values="0 0 0 0 0.352941 0 0 0 0 0.447059 0 0 0 0 0.917647 0 0 0 0.04384 0"/>
<feBlend mode="normal" in2="effect1_dropShadow_0_204" result="effect2_dropShadow_0_204"/>
<feColorMatrix in="SourceAlpha" type="matrix" values="0 0 0 0 0 0 0 0 0 0 0 0 0 0 0 0 0 0 127 0" result="hardAlpha"/>
<feOffset dx="0.290198" dy="6.64647"/>
<feGaussianBlur stdDeviation="15.0552"/>
<feColorMatrix type="matrix" values="0 0 0 0 0.352941 0 0 0 0 0.447059 0 0 0 0 0.917647 0 0 0 0.05616 0"/>
<feBlend mode="normal" in2="effect2_dropShadow_0_204" result="effect3_dropShadow_0_204"/>
<feColorMatrix in="SourceAlpha" type="matrix" values="0 0 0 0 0 0 0 0 0 0 0 0 0 0 0 0 0 0 127 0" result="hardAlpha"/>
<feOffset dx="0.565041" dy="12.9413"/>
<feGaussianBlur stdDeviation="32.0784"/>
<feColorMatrix type="matrix" values="0 0 0 0 0.352941 0 0 0 0 0.447059 0 0 0 0 0.917647 0 0 0 0.07232 0"/>
<feBlend mode="normal" in2="effect3_dropShadow_0_204" result="effect4_dropShadow_0_204"/>
<feColorMatrix in="SourceAlpha" type="matrix" values="0 0 0 0 0 0 0 0 0 0 0 0 0 0 0 0 0 0 127 0" result="hardAlpha"/>
<feOffset dx="0.959649" dy="21.9791"/>
<feGaussianBlur stdDeviation="61.5"/>
<feColorMatrix type="matrix" values="0 0 0 0 0.352941 0 0 0 0 0.447059 0 0 0 0 0.917647 0 0 0 0.1 0"/>
<feBlend mode="normal" in2="effect4_dropShadow_0_204" result="effect5_dropShadow_0_204"/>
<feBlend mode="normal" in="SourceGraphic" in2="effect5_dropShadow_0_204" result="shape"/>
</filter>
</defs>
</svg>
