<svg id="레이어_1" data-name="레이어 1" xmlns="http://www.w3.org/2000/svg" viewBox="0 0 90 68.1"><defs><style>.cls-1{fill:#3753e1;}.cls-2{fill:#fff;}</style></defs><rect class="cls-1" width="90" height="54" rx="16"/><path class="cls-2" d="M22.74,39.59v-2l6.38-6.43c2-2.09,3-3.26,3-4.87,0-1.82-1.48-3-3.41-3a3.11,3.11,0,0,0-3.35,3.25H22.74c0-3.37,2.54-5.59,6.05-5.59s6,2.25,6,5.23c0,2.06-1,3.7-4.44,7.09l-3.73,3.78v.15h8.48v2.39Zm21.86.25c-4.25,0-6.75-3.43-6.75-9.44S40.38,21,44.6,21s6.74,3.47,6.76,9.45S48.86,39.84,44.6,39.84Zm-4-9.44c0,4.58,1.48,7,4,7s4-2.45,4-7-1.49-7.08-4-7.09S40.64,25.83,40.64,30.4Zm16.48,1.77c-1.93,0-3-1.42-3-3.52s1.08-3.51,3-3.5,3,1.43,3,3.5S59,32.19,57.12,32.17Zm-1.37,7.42,9.71-14.14h1.78L57.53,39.59Zm0-10.94c0,1.3.46,2.14,1.37,2.15s1.35-.85,1.35-2.15-.4-2.14-1.35-2.13S55.76,27.39,55.75,28.65Zm7.33,7.71c0-2.09,1.08-3.52,3-3.51s3,1.42,3,3.51-1.06,3.52-3,3.52S63.07,38.44,63.08,36.36Zm1.6,0c0,1.28.46,2.13,1.37,2.13s1.34-.85,1.34-2.13-.4-2.14-1.34-2.14S64.69,35.09,64.68,36.36Z" transform="translate(-0.82 -3.59)"/><path class="cls-1" d="M45.27,71.18a1,1,0,0,0,1.74,0L54.22,58.6a1,1,0,0,0-.86-1.5H38.93a1,1,0,0,0-.87,1.5Z" transform="translate(-0.82 -3.59)"/></svg>