<svg id="레이어_1" data-name="레이어 1" xmlns="http://www.w3.org/2000/svg" viewBox="0 0 86 68.1"><defs><style>.cls-1{fill:#3753e1;}.cls-2{fill:#fff;}</style></defs><rect class="cls-1" width="86" height="54" rx="16"/><path class="cls-2" d="M31.63,21.2V39.59H28.81V24h-.1l-4.39,2.87V24.2l4.57-3ZM42.7,39.84c-4.25,0-6.75-3.43-6.75-9.44S38.47,21,42.7,21s6.74,3.47,6.75,9.45S47,39.84,42.7,39.84Zm-4-9.44c0,4.58,1.47,7,4,7s4-2.45,4-7-1.5-7.08-4-7.09S38.74,25.83,38.74,30.4Zm16.48,1.77c-1.94,0-3-1.42-3-3.52s1.08-3.51,3-3.5,3,1.43,3,3.5S57.12,32.19,55.22,32.17Zm-1.37,7.42,9.71-14.14h1.77l-9.7,14.14Zm0-10.94c0,1.3.46,2.14,1.37,2.15s1.34-.85,1.34-2.15-.4-2.14-1.34-2.13S53.86,27.39,53.85,28.65Zm7.32,7.71c0-2.08,1.09-3.52,3-3.51s3,1.43,3,3.51-1.06,3.52-3,3.52S61.16,38.45,61.17,36.36Zm1.6,0c0,1.28.46,2.13,1.37,2.13s1.35-.85,1.35-2.13-.4-2.14-1.35-2.14S62.78,35.09,62.77,36.36Z" transform="translate(-2.82 -3.59)"/><path class="cls-1" d="M45.27,71.18a1,1,0,0,0,1.74,0L54.22,58.6a1,1,0,0,0-.86-1.5H38.93a1,1,0,0,0-.87,1.5Z" transform="translate(-2.82 -3.59)"/></svg>