<svg width="337" height="315" viewBox="0 0 337 315" fill="none" xmlns="http://www.w3.org/2000/svg">
<g filter="url(#filter0_ddddd_0_571)">
<rect x="123" y="101.612" width="90" height="54" rx="16" fill="#3753E1"/>
<path d="M144.925 137.612V135.581L151.298 129.157C153.316 127.062 154.319 125.894 154.319 124.282C154.319 122.466 152.847 121.311 150.917 121.311C148.873 121.311 147.578 122.606 147.565 124.561H144.925C144.899 121.197 147.464 118.975 150.968 118.975C154.51 118.975 156.96 121.222 156.985 124.206C156.96 126.262 155.995 127.9 152.542 131.29L148.81 135.073V135.225H157.29V137.612H144.925ZM166.786 137.866C162.533 137.866 160.032 134.438 160.032 128.421C160.032 122.441 162.559 118.975 166.786 118.975C171.001 118.975 173.527 122.441 173.54 128.421C173.527 134.438 171.039 137.866 166.786 137.866ZM162.825 128.421C162.812 133.004 164.298 135.454 166.786 135.454C169.262 135.454 170.747 133.004 170.747 128.421C170.747 123.85 169.249 121.349 166.786 121.337C164.311 121.349 162.825 123.85 162.825 128.421ZM179.302 130.19C177.368 130.21 176.313 128.774 176.333 126.674C176.313 124.604 177.417 123.169 179.302 123.178C181.245 123.169 182.261 124.604 182.271 126.674C182.261 128.784 181.206 130.21 179.302 130.19ZM177.935 137.612L187.642 123.471H189.419L179.712 137.612H177.935ZM177.935 126.674C177.944 127.973 178.394 128.813 179.302 128.823C180.22 128.813 180.649 127.973 180.649 126.674C180.649 125.405 180.249 124.536 179.302 124.546C178.394 124.565 177.944 125.415 177.935 126.674ZM185.259 134.389C185.249 132.299 186.343 130.864 188.228 130.874C190.161 130.864 191.187 132.299 191.196 134.389C191.187 136.479 190.132 137.905 188.228 137.905C186.304 137.905 185.249 136.469 185.259 134.389ZM186.86 134.389C186.87 135.669 187.319 136.518 188.228 136.518C189.146 136.518 189.575 135.669 189.575 134.389C189.575 133.1 189.175 132.241 188.228 132.241C187.329 132.26 186.87 133.11 186.86 134.389Z" fill="white"/>
<path d="M167.456 169.206C167.84 169.876 168.807 169.876 169.191 169.206L176.406 156.621C176.788 155.954 176.307 155.123 175.539 155.123H161.109C160.341 155.123 159.859 155.954 160.242 156.621L167.456 169.206Z" fill="#3753E1"/>
</g>
<defs>
<filter id="filter0_ddddd_0_571" x="0.959649" y="0.590998" width="336" height="314.097" filterUnits="userSpaceOnUse" color-interpolation-filters="sRGB">
<feFlood flood-opacity="0" result="BackgroundImageFix"/>
<feColorMatrix in="SourceAlpha" type="matrix" values="0 0 0 0 0 0 0 0 0 0 0 0 0 0 0 0 0 0 127 0" result="hardAlpha"/>
<feOffset dx="0.0261025" dy="0.59783"/>
<feGaussianBlur stdDeviation="2.8536"/>
<feColorMatrix type="matrix" values="0 0 0 0 0.352941 0 0 0 0 0.447059 0 0 0 0 0.917647 0 0 0 0.02768 0"/>
<feBlend mode="normal" in2="BackgroundImageFix" result="effect1_dropShadow_0_571"/>
<feColorMatrix in="SourceAlpha" type="matrix" values="0 0 0 0 0 0 0 0 0 0 0 0 0 0 0 0 0 0 127 0" result="hardAlpha"/>
<feOffset dx="0.116693" dy="2.67265"/>
<feGaussianBlur stdDeviation="6.5928"/>
<feColorMatrix type="matrix" values="0 0 0 0 0.352941 0 0 0 0 0.447059 0 0 0 0 0.917647 0 0 0 0.04384 0"/>
<feBlend mode="normal" in2="effect1_dropShadow_0_571" result="effect2_dropShadow_0_571"/>
<feColorMatrix in="SourceAlpha" type="matrix" values="0 0 0 0 0 0 0 0 0 0 0 0 0 0 0 0 0 0 127 0" result="hardAlpha"/>
<feOffset dx="0.290198" dy="6.64647"/>
<feGaussianBlur stdDeviation="15.0552"/>
<feColorMatrix type="matrix" values="0 0 0 0 0.352941 0 0 0 0 0.447059 0 0 0 0 0.917647 0 0 0 0.05616 0"/>
<feBlend mode="normal" in2="effect2_dropShadow_0_571" result="effect3_dropShadow_0_571"/>
<feColorMatrix in="SourceAlpha" type="matrix" values="0 0 0 0 0 0 0 0 0 0 0 0 0 0 0 0 0 0 127 0" result="hardAlpha"/>
<feOffset dx="0.565041" dy="12.9413"/>
<feGaussianBlur stdDeviation="32.0784"/>
<feColorMatrix type="matrix" values="0 0 0 0 0.352941 0 0 0 0 0.447059 0 0 0 0 0.917647 0 0 0 0.07232 0"/>
<feBlend mode="normal" in2="effect3_dropShadow_0_571" result="effect4_dropShadow_0_571"/>
<feColorMatrix in="SourceAlpha" type="matrix" values="0 0 0 0 0 0 0 0 0 0 0 0 0 0 0 0 0 0 127 0" result="hardAlpha"/>
<feOffset dx="0.959649" dy="21.9791"/>
<feGaussianBlur stdDeviation="61.5"/>
<feColorMatrix type="matrix" values="0 0 0 0 0.352941 0 0 0 0 0.447059 0 0 0 0 0.917647 0 0 0 0.1 0"/>
<feBlend mode="normal" in2="effect4_dropShadow_0_571" result="effect5_dropShadow_0_571"/>
<feBlend mode="normal" in="SourceGraphic" in2="effect5_dropShadow_0_571" result="shape"/>
</filter>
</defs>
</svg>
