<svg id="레이어_1" data-name="레이어 1" xmlns="http://www.w3.org/2000/svg" viewBox="0 0 86 68.1"><defs><style>.cls-1{fill:#3753e1;}.cls-2{fill:#fff;}</style></defs><rect class="cls-1" width="86" height="54" rx="16"/><path class="cls-2" d="M31.77,21.2V39.59H29V24h-.1l-4.39,2.87V24.2l4.57-3ZM42.69,39.84c-3.48,0-6.1-2.12-6.22-5.05h2.71a3.32,3.32,0,0,0,3.51,2.72,3.72,3.72,0,0,0,3.83-3.81,3.81,3.81,0,0,0-4-3.89,3.37,3.37,0,0,0-3.22,1.63H36.69l1.2-10.24H48.3v2.39H40.2l-.61,5.16h.18a5.11,5.11,0,0,1,3.45-1.25,5.89,5.89,0,0,1,6,6.12C49.24,37.24,46.52,39.84,42.69,39.84Zm12.39-7.67c-1.94,0-3-1.42-3-3.52s1.08-3.51,3-3.5,3,1.43,3,3.5S57,32.19,55.08,32.17Zm-1.37,7.42,9.71-14.14h1.77l-9.7,14.14Zm0-10.94c0,1.3.46,2.14,1.37,2.15s1.34-.85,1.34-2.15-.4-2.14-1.34-2.13S53.72,27.39,53.71,28.65ZM61,36.36c0-2.08,1.09-3.52,3-3.51s3,1.43,3,3.51-1.06,3.52-3,3.52S61,38.45,61,36.36Zm1.6,0c0,1.28.46,2.13,1.37,2.13s1.35-.85,1.35-2.13S65,34.22,64,34.22,62.64,35.09,62.63,36.36Z" transform="translate(-2.82 -3.59)"/><path class="cls-1" d="M45.27,71.18a1,1,0,0,0,1.74,0L54.22,58.6a1,1,0,0,0-.86-1.5H38.93a1,1,0,0,0-.87,1.5Z" transform="translate(-2.82 -3.59)"/></svg>