<svg width="51" height="50" viewBox="0 0 51 50" fill="none" xmlns="http://www.w3.org/2000/svg">
<path d="M33.5208 16.9583C34.3333 16.9583 35.125 17.0208 35.8958 17.125C34.4792 10.9375 27.9792 6.25 20.1667 6.25C11.3125 6.25 4.125 12.25 4.125 19.6458C4.125 23.9167 6.52083 27.6875 10.25 30.1458L8.14583 34.375L13.8958 31.8958C15.125 32.3333 16.4167 32.6875 17.7917 32.875C17.6042 32.0625 17.5 31.2292 17.5 30.3542C17.4792 22.9792 24.6667 16.9583 33.5208 16.9583ZM25.5 12.2708C25.7626 12.2708 26.0227 12.3226 26.2654 12.4231C26.508 12.5236 26.7285 12.6709 26.9142 12.8566C27.0999 13.0423 27.2473 13.2628 27.3478 13.5055C27.4483 13.7481 27.5 14.0082 27.5 14.2708C27.5 14.5335 27.4483 14.7935 27.3478 15.0362C27.2473 15.2789 27.0999 15.4993 26.9142 15.685C26.7285 15.8708 26.508 16.0181 26.2654 16.1186C26.0227 16.2191 25.7626 16.2708 25.5 16.2708C24.9696 16.2708 24.4609 16.0601 24.0858 15.685C23.7107 15.31 23.5 14.8013 23.5 14.2708C23.5 13.7404 23.7107 13.2317 24.0858 12.8566C24.4609 12.4815 24.9696 12.2708 25.5 12.2708ZM14.8125 16.2917C14.2821 16.2917 13.7734 16.081 13.3983 15.7059C13.0232 15.3308 12.8125 14.8221 12.8125 14.2917C12.8125 13.7612 13.0232 13.2525 13.3983 12.8775C13.7734 12.5024 14.2821 12.2917 14.8125 12.2917C15.3429 12.2917 15.8516 12.5024 16.2267 12.8775C16.6018 13.2525 16.8125 13.7612 16.8125 14.2917C16.8125 14.8221 16.6018 15.3308 16.2267 15.7059C15.8516 16.081 15.3429 16.2917 14.8125 16.2917Z" fill="white"/>
<path d="M46.875 30.3542C46.875 24.4375 40.8958 19.6458 33.5208 19.6458C26.1458 19.6458 20.1667 24.4375 20.1667 30.3542C20.1667 36.2708 26.1458 41.0625 33.5208 41.0625C34.7292 41.0625 35.8958 40.8958 37 40.6458L44.2083 43.75L41.7083 38.75C44.8333 36.7917 46.875 33.7917 46.875 30.3542ZM29.5 29.6875C29.1044 29.6875 28.7177 29.5702 28.3889 29.3504C28.06 29.1307 27.8036 28.8183 27.6522 28.4529C27.5009 28.0874 27.4612 27.6853 27.5384 27.2973C27.6156 26.9094 27.8061 26.553 28.0858 26.2733C28.3655 25.9936 28.7218 25.8031 29.1098 25.7259C29.4978 25.6488 29.8999 25.6884 30.2654 25.8397C30.6308 25.9911 30.9432 26.2475 31.1629 26.5764C31.3827 26.9053 31.5 27.2919 31.5 27.6875C31.5208 28.7917 30.6042 29.6875 29.5 29.6875ZM37.5208 29.6875C36.9904 29.6875 36.4817 29.4768 36.1066 29.1017C35.7315 28.7267 35.5208 28.2179 35.5208 27.6875C35.5208 27.1571 35.7315 26.6484 36.1066 26.2733C36.4817 25.8982 36.9904 25.6875 37.5208 25.6875C38.0513 25.6875 38.56 25.8982 38.935 26.2733C39.3101 26.6484 39.5208 27.1571 39.5208 27.6875C39.5208 28.2179 39.3101 28.7267 38.935 29.1017C38.56 29.4768 38.0513 29.6875 37.5208 29.6875Z" fill="white"/>
</svg>
